<svg width="89" height="89" viewBox="0 0 89 89" fill="none" xmlns="http://www.w3.org/2000/svg">
<path d="M27.8125 47.2812H61.1875" stroke="#FF2F3B" stroke-width="4" stroke-linecap="round" stroke-linejoin="round"/>
<path d="M16.6875 33.375V25.0312C16.6875 22.0807 17.8596 19.251 19.9459 17.1647C22.0323 15.0783 24.862 13.9063 27.8125 13.9062H61.1875C64.138 13.9063 66.9677 15.0783 69.0541 17.1647C71.1404 19.251 72.3125 22.0807 72.3125 25.0312V33.375" stroke="#FF2F3B" stroke-width="4" stroke-linecap="round" stroke-linejoin="round"/>
<path d="M27.8125 58.4063V44.5C27.8125 42.2997 27.16 40.1488 25.9376 38.3193C24.7152 36.4898 22.9777 35.0639 20.9449 34.2218C18.912 33.3798 16.6752 33.1595 14.5171 33.5888C12.3591 34.018 10.3768 35.0776 8.82094 36.6334C7.26508 38.1893 6.20553 40.1716 5.77627 42.3296C5.34701 44.4877 5.56732 46.7245 6.40935 48.7574C7.25137 50.7902 8.67729 52.5277 10.5068 53.7501C12.3363 54.9725 14.4872 55.625 16.6875 55.625V69.5313C16.6875 70.2689 16.9805 70.9763 17.5021 71.4979C18.0237 72.0195 18.7311 72.3125 19.4688 72.3125H69.5313C70.2689 72.3125 70.9763 72.0195 71.4979 71.4979C72.0195 70.9763 72.3125 70.2689 72.3125 69.5313V55.625C74.5128 55.625 76.6637 54.9725 78.4932 53.7501C80.3227 52.5277 81.7486 50.7902 82.5907 48.7574C83.4327 46.7245 83.653 44.4877 83.2237 42.3296C82.7945 40.1716 81.7349 38.1893 80.1791 36.6334C78.6232 35.0776 76.6409 34.018 74.4829 33.5888C72.3249 33.1595 70.088 33.3798 68.0552 34.2218C66.0223 35.0639 64.2848 36.4898 63.0624 38.3193C61.84 40.1488 61.1875 42.2997 61.1875 44.5V58.4063" stroke="#FF2F3B" stroke-width="4" stroke-linecap="round" stroke-linejoin="round"/>
</svg>
