<svg width="89" height="89" viewBox="0 0 89 89" fill="none" xmlns="http://www.w3.org/2000/svg">
<path d="M18.9473 70.0527C15.7488 66.8543 17.8695 60.1445 16.2355 56.216C14.6016 52.2875 8.34375 48.8457 8.34375 44.5C8.34375 40.1543 14.532 36.8516 16.2355 32.784C17.9391 28.7164 15.7488 22.1457 18.9473 18.9473C22.1457 15.7488 28.8555 17.8695 32.784 16.2355C36.7125 14.6016 40.1543 8.34375 44.5 8.34375C48.8457 8.34375 52.1484 14.532 56.216 16.2355C60.2836 17.9391 66.8543 15.7488 70.0527 18.9473C73.2512 22.1457 71.1305 28.8555 72.7645 32.784C74.3984 36.7125 80.6562 40.1543 80.6562 44.5C80.6562 48.8457 74.468 52.1484 72.7645 56.216C71.0609 60.2836 73.2512 66.8543 70.0527 70.0527C66.8543 73.2512 60.1445 71.1305 56.216 72.7645C52.2875 74.3984 48.8457 80.6562 44.5 80.6562C40.1543 80.6562 36.8516 74.468 32.784 72.7645C28.7164 71.0609 22.1457 73.2512 18.9473 70.0527Z" stroke="#FF2F3B" stroke-width="4" stroke-linecap="round" stroke-linejoin="round"/>
<path d="M59.7969 36.1562L39.3895 55.625L29.2031 45.8906" stroke="#FF2F3B" stroke-width="4" stroke-linecap="round" stroke-linejoin="round"/>
</svg>
