<svg width="89" height="89" viewBox="0 0 89 89" fill="none" xmlns="http://www.w3.org/2000/svg">
<path d="M44.5 62.5781C52.1802 62.5781 58.4062 56.3521 58.4062 48.6719C58.4062 40.9917 52.1802 34.7656 44.5 34.7656C36.8198 34.7656 30.5938 40.9917 30.5938 48.6719C30.5938 56.3521 36.8198 62.5781 44.5 62.5781Z" stroke="#FF2F3B" stroke-width="4" stroke-linecap="round" stroke-linejoin="round"/>
<path d="M68.1406 40.3282C71.3799 40.3227 74.5756 41.0743 77.4729 42.523C80.3702 43.9716 82.8889 46.0772 84.8281 48.6719" stroke="#FF2F3B" stroke-width="4" stroke-linecap="round" stroke-linejoin="round"/>
<path d="M4.17188 48.6719C6.1111 46.0772 8.6298 43.9716 11.5271 42.523C14.4244 41.0743 17.6201 40.3227 20.8594 40.3282" stroke="#FF2F3B" stroke-width="4" stroke-linecap="round" stroke-linejoin="round"/>
<path d="M24.475 75.0946C26.3065 71.3437 29.1547 68.1826 32.6951 65.9714C36.2355 63.7603 40.3258 62.5879 44.5 62.5879C48.6742 62.5879 52.7644 63.7603 56.3048 65.9714C59.8452 68.1826 62.6934 71.3437 64.525 75.0946" stroke="#FF2F3B" stroke-width="4" stroke-linecap="round" stroke-linejoin="round"/>
<path d="M20.8593 40.3281C18.7478 40.3303 16.6793 39.7314 14.8954 38.6017C13.1116 37.4719 11.6861 35.8577 10.7856 33.9479C9.88503 32.038 9.54659 29.9113 9.80981 27.8163C10.073 25.7212 10.927 23.7444 12.272 22.1167C13.6171 20.4889 15.3975 19.2776 17.4054 18.6242C19.4133 17.9708 21.5656 17.9023 23.611 18.4267C25.6564 18.9511 27.5102 20.0468 28.956 21.5856C30.4018 23.1245 31.3798 25.0431 31.7757 27.1172" stroke="#FF2F3B" stroke-width="4" stroke-linecap="round" stroke-linejoin="round"/>
<path d="M57.2242 27.1172C57.6202 25.0431 58.5981 23.1245 60.0439 21.5856C61.4897 20.0468 63.3436 18.9511 65.389 18.4267C67.4343 17.9023 69.5867 17.9708 71.5946 18.6242C73.6024 19.2776 75.3829 20.4889 76.7279 22.1167C78.0729 23.7444 78.9269 25.7212 79.1902 27.8163C79.4534 29.9113 79.1149 32.038 78.2144 33.9479C77.3138 35.8577 75.8884 37.4719 74.1045 38.6017C72.3207 39.7314 70.2522 40.3303 68.1406 40.3281" stroke="#FF2F3B" stroke-width="4" stroke-linecap="round" stroke-linejoin="round"/>
</svg>
