<svg width="89" height="89" viewBox="0 0 89 89" fill="none" xmlns="http://www.w3.org/2000/svg">
<path d="M44.5 77.875C62.9325 77.875 77.875 62.9325 77.875 44.5C77.875 26.0675 62.9325 11.125 44.5 11.125C26.0675 11.125 11.125 26.0675 11.125 44.5C11.125 62.9325 26.0675 77.875 44.5 77.875Z" stroke="#FF2F3B" stroke-width="4" stroke-linecap="round" stroke-linejoin="round"/>
<path d="M31.9844 41.7188C34.2884 41.7188 36.1562 39.8509 36.1562 37.5469C36.1562 35.2428 34.2884 33.375 31.9844 33.375C29.6803 33.375 27.8125 35.2428 27.8125 37.5469C27.8125 39.8509 29.6803 41.7188 31.9844 41.7188Z" fill="#FF2F3B"/>
<path d="M52.8438 37.5469H61.1875" stroke="#FF2F3B" stroke-width="4" stroke-linecap="round" stroke-linejoin="round"/>
<path d="M58.9625 52.8438C57.4922 55.3768 55.3824 57.4792 52.8443 58.9407C50.3062 60.4021 47.4288 61.1714 44.5 61.1714C41.5712 61.1714 38.6937 60.4021 36.1556 58.9407C33.6175 57.4792 31.5077 55.3768 30.0375 52.8438" stroke="#FF2F3B" stroke-width="4" stroke-linecap="round" stroke-linejoin="round"/>
</svg>
