<svg width="89" height="89" viewBox="0 0 89 89" fill="none" xmlns="http://www.w3.org/2000/svg">
<path d="M11.8551 48.9148C8.73785 43.663 7.64523 37.4538 8.78244 31.4533C9.91965 25.4528 13.2084 20.074 18.0311 16.327C22.8538 12.5799 28.8786 10.7225 34.974 11.1036C41.0694 11.4846 46.8159 14.0779 51.1344 18.3964C55.4529 22.7149 58.0462 28.4614 58.4273 34.5568C58.8083 40.6522 56.9509 46.677 53.2038 51.4997C49.4568 56.3224 44.078 59.6112 38.0775 60.7484C32.077 61.8856 25.8678 60.793 20.616 57.6757L11.9594 60.1441C11.6027 60.2444 11.2258 60.2478 10.8673 60.1541C10.5088 60.0604 10.1818 59.873 9.91982 59.611C9.65784 59.349 9.47036 59.022 9.37667 58.6635C9.28297 58.305 9.28644 57.9281 9.38672 57.5714L11.8551 48.9148Z" stroke="#FF2F3B" stroke-width="4" stroke-linecap="round" stroke-linejoin="round"/>
<path d="M32.0192 61.1531C33.2445 64.6466 35.2304 67.8242 37.8336 70.4565C40.4367 73.0888 43.5921 75.11 47.0717 76.3741C50.5513 77.6382 54.2682 78.1136 57.9539 77.766C61.6396 77.4184 65.2021 76.2564 68.384 74.3641V74.3641L77.0407 76.8324C77.3973 76.9327 77.7743 76.9362 78.1327 76.8425C78.4912 76.7488 78.8182 76.5613 79.0802 76.2993C79.3422 76.0373 79.5297 75.7103 79.6234 75.3518C79.7171 74.9934 79.7136 74.6164 79.6133 74.2598L77.1449 65.6031C79.3486 61.9041 80.5595 57.6986 80.6601 53.3941C80.7608 49.0896 79.7478 44.832 77.7194 41.0341C75.691 37.2361 72.716 34.0265 69.0826 31.7162C65.4492 29.4059 61.2806 28.0734 56.9809 27.8477" stroke="#FF2F3B" stroke-width="4" stroke-linecap="round" stroke-linejoin="round"/>
</svg>
