<svg width="89" height="89" viewBox="0 0 89 89" fill="none" xmlns="http://www.w3.org/2000/svg">
<path d="M19.4688 19.4688V38.6246C19.4688 52.4266 30.5242 63.8645 44.3262 63.9688C47.6279 63.9917 50.9016 63.3611 53.9586 62.1135C57.0156 60.8658 59.7956 59.0257 62.1384 56.699C64.4812 54.3724 66.3406 51.6052 67.6094 48.5569C68.8782 45.5086 69.5313 42.2393 69.5312 38.9375V19.4688C69.5312 18.7311 69.2382 18.0237 68.7166 17.5021C68.1951 16.9805 67.4876 16.6875 66.75 16.6875H22.25C21.5124 16.6875 20.8049 16.9805 20.2834 17.5021C19.7618 18.0237 19.4688 18.7311 19.4688 19.4688Z" stroke="#FF2F3B" stroke-width="4" stroke-linecap="round" stroke-linejoin="round"/>
<path d="M33.375 77.875H55.625" stroke="#FF2F3B" stroke-width="4" stroke-linecap="round" stroke-linejoin="round"/>
<path d="M44.5 63.9688V77.875" stroke="#FF2F3B" stroke-width="4" stroke-linecap="round" stroke-linejoin="round"/>
<path d="M68.9055 44.5H72.3125C75.263 44.5 78.0927 43.3279 80.1791 41.2416C82.2654 39.1552 83.4375 36.3255 83.4375 33.375V27.8125C83.4375 27.0749 83.1445 26.3674 82.6229 25.8459C82.1013 25.3243 81.3939 25.0312 80.6562 25.0312H69.5312" stroke="#FF2F3B" stroke-width="4" stroke-linecap="round" stroke-linejoin="round"/>
<path d="M20.164 44.5H16.6527C13.7022 44.5 10.8725 43.3279 8.78615 41.2416C6.6998 39.1552 5.52771 36.3255 5.52771 33.375V27.8125C5.52771 27.0749 5.82073 26.3674 6.34232 25.8459C6.8639 25.3243 7.57133 25.0312 8.30896 25.0312H19.434" stroke="#FF2F3B" stroke-width="4" stroke-linecap="round" stroke-linejoin="round"/>
</svg>
