<svg width="89" height="89" viewBox="0 0 89 89" fill="none" xmlns="http://www.w3.org/2000/svg">
<path d="M30.5938 8.34375V19.4688" stroke="#FF2F3B" stroke-width="4" stroke-linecap="round" stroke-linejoin="round"/>
<path d="M41.7188 8.34375V19.4688" stroke="#FF2F3B" stroke-width="4" stroke-linecap="round" stroke-linejoin="round"/>
<path d="M52.8438 8.34375V19.4688" stroke="#FF2F3B" stroke-width="4" stroke-linecap="round" stroke-linejoin="round"/>
<path d="M11.125 75.0938H72.3125" stroke="#FF2F3B" stroke-width="4" stroke-linecap="round" stroke-linejoin="round"/>
<path d="M28.9598 75.0938C23.6367 72.6512 19.1266 68.7322 15.9651 63.802C12.8037 58.8719 11.1238 53.1379 11.125 47.2812V30.5938H72.3125V47.2812C72.3137 53.1379 70.6338 58.8719 67.4724 63.802C64.3109 68.7322 59.8008 72.6512 54.4777 75.0938" stroke="#FF2F3B" stroke-width="4" stroke-linecap="round" stroke-linejoin="round"/>
<path d="M72.3125 30.5938C75.263 30.5938 78.0927 31.7658 80.1791 33.8522C82.2654 35.9385 83.4375 38.7682 83.4375 41.7188V44.5C83.4375 47.4505 82.2654 50.2802 80.1791 52.3666C78.0927 54.4529 75.263 55.625 72.3125 55.625H71.1305" stroke="#FF2F3B" stroke-width="4" stroke-linecap="round" stroke-linejoin="round"/>
</svg>
