<svg width="89" height="89" viewBox="0 0 89 89" fill="none" xmlns="http://www.w3.org/2000/svg">
<path d="M11.125 44.5H25.0312L30.5938 36.1562L41.7188 52.8438L47.2812 44.5H55.625" stroke="#FF2F3B" stroke-width="4" stroke-linecap="round" stroke-linejoin="round"/>
<path d="M9.76914 33.375C9.73438 32.9231 9.73438 32.4364 9.73438 31.9844C9.73438 27.8052 11.1823 23.755 13.8319 20.5231C16.4815 17.2911 20.169 15.077 24.2671 14.2573C28.3652 13.4377 32.6206 14.0633 36.3094 16.0276C39.9983 17.9919 42.8926 21.1735 44.5 25.0313V25.0313C46.1074 21.1735 49.0017 17.9919 52.6906 16.0276C56.3794 14.0633 60.6348 13.4377 64.7329 14.2573C68.831 15.077 72.5185 17.2911 75.1681 20.5231C77.8177 23.755 79.2656 27.8052 79.2656 31.9844C79.2656 55.625 44.5 75.0938 44.5 75.0938C44.5 75.0938 30.6285 67.3063 20.4074 55.625" stroke="#FF2F3B" stroke-width="4" stroke-linecap="round" stroke-linejoin="round"/>
</svg>
