<svg width="119" height="27" viewBox="0 0 119 27" fill="none" xmlns="http://www.w3.org/2000/svg">
<g clip-path="url(#clip0_2480_153426)">
<path d="M118.999 8.39844L118.811 8.88261C118.627 9.36548 118.495 9.64997 118.318 10.0408C118.207 10.2822 118.077 10.5667 117.899 10.9774L114.114 20.3528C113.453 22.0217 112.133 22.9773 110.503 22.9773C109.939 22.9773 109.275 22.8068 108.899 22.6523L108.559 22.5096L108.712 22.1695C109.238 21.0458 109.578 20.6844 110.676 20.5942C111.093 20.5613 111.546 20.0718 111.866 19.3142L112.026 18.925L108.599 10.9743C108.417 10.5486 108.279 10.2202 108.141 9.88793C108.008 9.57908 107.879 9.2734 107.715 8.8959L107.5 8.39844H109.188C110.164 8.39844 110.597 8.69877 110.971 9.64997C110.971 9.64997 112.856 14.325 112.997 14.6655C113.133 15.0101 113.3 15.8331 113.3 15.8331L113.387 15.8281C113.387 15.8281 113.508 15.0943 113.655 14.6655C113.804 14.2395 115.483 9.66327 115.483 9.66327C115.834 8.72536 116.314 8.39844 117.308 8.39844H118.999Z" fill="#E51A4B"/>
<path d="M97.8995 8.27344C96.7538 8.27344 95.3383 9.25944 95.0267 10.5195C95.0267 10.5043 95.0267 9.90657 95.0267 9.76542C95.0267 9.09808 94.6266 8.39714 93.3671 8.39714H92.4258V19.3227H95.0942V14.7888C95.0942 14.1152 95.1642 13.5484 95.3189 13.0526C95.7187 11.7498 96.7074 10.9084 97.8355 10.9084C98.1095 10.9084 98.3393 10.9577 98.3393 10.9577L98.7805 11.0613V8.36427L98.4769 8.31935C98.4654 8.31935 98.1847 8.27344 97.8995 8.27344Z" fill="#E51A4B"/>
<path d="M105.639 8.27344C104.496 8.27344 103.086 9.25944 102.77 10.5195C102.77 10.5043 102.77 9.90657 102.77 9.76542C102.77 9.09808 102.375 8.39714 101.111 8.39714H100.168V19.3227H102.836V14.7888C102.836 14.1152 102.91 13.5484 103.061 13.0526C103.461 11.7498 104.45 10.9084 105.58 10.9084C105.857 10.9084 106.083 10.9577 106.083 10.9577L106.521 11.0613V8.36427L106.221 8.31935C106.208 8.31935 105.929 8.27344 105.639 8.27344Z" fill="#E51A4B"/>
<path d="M49.5413 8.52344C46.214 8.52344 43.707 10.9676 43.707 14.2092C43.707 17.4732 46.214 19.937 49.5413 19.937C52.8263 19.937 55.3988 17.4188 55.3988 14.2092C55.3988 10.9676 52.8836 8.52344 49.5413 8.52344ZM49.5413 17.5238C47.7585 17.5238 46.4123 16.098 46.4123 14.2092C46.4123 12.3412 47.7585 10.9331 49.5413 10.9331C51.3369 10.9331 52.69 12.3412 52.69 14.2092C52.69 16.098 51.3369 17.5238 49.5413 17.5238Z" fill="#E51A4B"/>
<path d="M37.4461 8.52326C35.9389 8.52326 34.904 9.13425 34.3024 9.65353H34.2254C34.2254 9.65353 34.3024 9.05516 34.3024 8.44634C34.3024 7.83624 34.3024 6.37967 34.3024 6.37967C34.3024 5.26742 33.7598 4.72852 32.653 4.72852H31.6328V14.3007C31.7656 17.7771 33.9303 19.9368 37.2904 19.9368C40.385 19.9368 42.7201 17.4831 42.7201 14.2299C42.7201 10.9759 40.4535 8.52326 37.4461 8.52326ZM37.0052 17.5423C35.2898 17.5423 34.1955 15.8775 34.1955 14.2662C34.1955 11.8221 35.7619 10.9512 37.0444 10.9512C38.5134 10.9512 40.0292 12.1863 40.0292 14.2466C40.0292 16.3117 38.4908 17.5423 37.0052 17.5423Z" fill="#E51A4B"/>
<path d="M73.5128 8.52326C72.004 8.52326 70.9711 9.13425 70.3648 9.65353H70.2887C70.2887 9.65353 70.3648 9.05516 70.3648 8.44634C70.3648 7.83624 70.3648 6.37967 70.3648 6.37967C70.3648 5.26742 69.8262 4.72852 68.7194 4.72852H67.6992V14.3007C67.8304 17.7771 69.9984 19.9368 73.3505 19.9368C76.4483 19.9368 78.7834 17.4831 78.7834 14.2299C78.7834 10.9759 76.5173 8.52326 73.5128 8.52326ZM73.0685 17.5423C71.3547 17.5423 70.2594 15.8775 70.2594 14.2662C70.2594 11.8221 71.8258 10.9512 73.1079 10.9512C74.5789 10.9512 76.0959 12.1863 76.0959 14.2466C76.0959 16.3117 74.5579 17.5423 73.0685 17.5423Z" fill="#E51A4B"/>
<path d="M64.7845 17.2987L62.6149 13.8569L64.4617 11.0953C64.7979 10.5913 65.0601 10.2315 65.339 9.85045C65.542 9.57583 65.7473 9.29669 65.9766 8.96318L66.3652 8.40625H64.3531C63.2219 8.40625 62.8005 8.65117 62.1947 9.65332C62.1947 9.65332 61.3814 10.9953 61.2684 11.1846C61.1621 11.37 60.8814 11.9944 60.875 12.0101H60.8015C60.8015 12.0101 60.5503 11.432 60.3979 11.1846C60.2501 10.9343 59.4617 9.64828 59.4617 9.64828C58.8232 8.65117 58.3973 8.40625 57.3083 8.40625H55.3008L55.7079 8.96827C56.1933 9.65332 56.4722 10.0558 56.8904 10.6602L59.0402 13.8569L57.2145 16.87C56.877 17.3678 56.6147 17.7338 56.3343 18.1132C56.1306 18.3908 55.9275 18.6655 55.6948 18.9952L55.3094 19.5575H57.3214C58.4514 19.5575 58.8757 19.316 59.4811 18.3136C59.4811 18.3136 60.2909 16.9735 60.4039 16.7826C60.5109 16.5969 60.7925 15.9713 60.8015 15.9564H60.875C60.875 15.9564 61.1242 16.5314 61.2751 16.7826C61.426 17.0295 62.2132 18.319 62.2132 18.319C62.8526 19.316 63.2757 19.5575 64.3659 19.5575H66.3716L65.9619 18.9952C65.48 18.3136 65.1992 17.9098 64.7845 17.2987Z" fill="#E51A4B"/>
<path d="M88.954 16.5807C88.6494 16.5807 88.3722 16.7089 88.0984 16.832L88.0586 16.8484C87.493 17.1079 86.8045 17.425 85.9874 17.425C84.597 17.425 82.7995 16.571 82.641 14.6945C82.641 14.6945 90.2317 14.6945 90.3237 14.6945C90.3708 14.3366 90.3991 13.8125 90.3991 13.5331C90.3991 10.4596 88.3607 8.39453 85.3463 8.39453C82.1257 8.39453 79.8711 10.7441 79.8711 14.1015C79.8711 17.4073 82.542 19.8071 85.889 19.8071C88.6052 19.8071 90.1248 18.1509 90.1891 18.087L90.3708 17.905L90.2626 17.6728C90.0137 17.1671 89.6527 16.5807 88.954 16.5807ZM85.5335 10.4808C86.6711 10.4808 87.8673 11.1792 87.8673 12.6595H82.6652C82.8422 11.5241 84.0002 10.4808 85.5335 10.4808Z" fill="#E51A4B"/>
<path d="M10.8632 20.8944C12.0256 19.7331 13.9065 19.7331 15.0677 20.8944C16.2337 22.0576 16.2337 23.9452 15.0677 25.1084C13.9065 26.2745 12.0256 26.2745 10.8632 25.1084C9.70706 23.9452 9.70706 22.0576 10.8632 20.8944Z" fill="#E51A4B"/>
<path d="M15.8616 15.8905C14.7024 17.0519 14.7024 18.9382 15.8616 20.1042C17.0245 21.2639 18.9085 21.2639 20.0694 20.1042C21.2286 18.9382 21.2286 17.0519 20.0694 15.8905C18.9085 14.7292 17.0245 14.7292 15.8616 15.8905Z" fill="#E51A4B"/>
<path d="M20.8592 10.8853C19.698 12.0463 19.698 13.9342 20.8592 15.0939C22.0203 16.2634 23.9028 16.2634 25.0656 15.0939C26.2236 13.9342 26.2236 12.0463 25.0656 10.8853C23.9028 9.72052 22.0203 9.72052 20.8592 10.8853Z" fill="#E51A4B"/>
<path d="M5.86938 15.8905C4.705 17.0519 4.705 18.9394 5.86938 20.1042C7.03058 21.2639 8.91306 21.2639 10.0758 20.1042C11.2355 18.9394 11.2355 17.0519 10.0758 15.8905C8.91306 14.7292 7.03058 14.7292 5.86938 15.8905Z" fill="#E51A4B"/>
<path d="M0.872074 10.8853C-0.290691 12.0495 -0.290691 13.9342 0.872074 15.0939C2.03296 16.2634 3.91544 16.2634 5.07664 15.0939C6.23909 13.9342 6.23909 12.0495 5.07664 10.8853C3.91544 9.72052 2.03296 9.72052 0.872074 10.8853Z" fill="#E51A4B"/>
<path d="M10.8632 10.8853C9.70706 12.0463 9.70706 13.9342 10.8632 15.0939C12.0256 16.2634 13.9065 16.2634 15.0728 15.0939C16.2337 13.9342 16.2337 12.0463 15.0728 10.8853C13.9065 9.72052 12.0256 9.72052 10.8632 10.8853Z" fill="#E51A4B"/>
<path d="M5.86938 5.8797C4.705 7.04388 4.705 8.92858 5.86938 10.0934C7.03058 11.2566 8.91306 11.2566 10.0758 10.0934C11.2355 8.92858 11.2355 7.04388 10.0758 5.8797C8.91306 4.71458 7.03058 4.71458 5.86938 5.8797Z" fill="#E51A4B"/>
<path d="M15.8616 5.8797C14.7024 7.04388 14.7024 8.92858 15.8616 10.0934C17.0245 11.2566 18.9085 11.2566 20.0694 10.0934C21.2286 8.92858 21.2286 7.04388 20.0694 5.8797C18.9085 4.71458 17.0245 4.71458 15.8616 5.8797Z" fill="#E51A4B"/>
<path fill-rule="evenodd" clip-rule="evenodd" d="M10.8632 0.87337C12.0256 -0.291123 13.9065 -0.291123 15.0728 0.87337C16.2337 2.03817 16.2337 3.92225 15.0728 5.08513C13.9065 6.24838 12.0256 6.24838 10.8632 5.08513C9.70706 3.92225 9.70706 2.03817 10.8632 0.87337Z" fill="#B0CB1F"/>
<path d="M34.4565 24.1406V26.812H33.9905V24.5659H32.7723V26.812H32.3047V24.1406H34.4565Z" fill="#E51A4B"/>
<path d="M35.7894 24.1409V25.9051L37.6161 23.9355V26.8123H37.1539V25.0295L35.3281 26.9993V24.1409H35.7894Z" fill="#E51A4B"/>
<path d="M40.5765 24.8895C40.334 24.5791 39.9797 24.4908 39.7406 24.4908C39.2466 24.4908 38.7975 24.8354 38.7975 25.4844C38.7975 26.1385 39.2596 26.4786 39.7352 26.4786C40.0109 26.4786 40.3518 26.3568 40.595 26.0597V26.6147C40.3047 26.8251 39.9994 26.8906 39.7486 26.8906C38.9172 26.8906 38.3203 26.2973 38.3203 25.4942C38.3203 24.6765 38.9254 24.0781 39.7486 24.0781C40.1719 24.0781 40.4476 24.2424 40.5765 24.3342V24.8895Z" fill="#E51A4B"/>
<path d="M41.3047 24.1406H41.7672V25.164H42.2428C42.4818 25.164 42.8144 25.1855 43.0513 25.4269C43.1573 25.5304 43.2575 25.7174 43.2575 25.9905C43.2575 26.2794 43.1359 26.4784 43.0182 26.5882C42.7899 26.8066 42.4999 26.812 42.2358 26.812H41.3047V24.1406ZM42.1966 26.4009C42.3507 26.4009 42.4999 26.3946 42.6098 26.33C42.6652 26.2911 42.7836 26.1959 42.7836 25.9905C42.7836 25.8722 42.7492 25.7357 42.6146 25.6535C42.4999 25.5763 42.3507 25.5763 42.203 25.5763H41.7672V26.4009H42.1966Z" fill="#E51A4B"/>
<path d="M44.2087 23.9355L45.3138 26.1104L46.3916 23.9355L47.0362 26.8123H46.5552L46.206 25.1592L45.2995 26.9993L44.3825 25.1592L44.0412 26.8123H43.5625L44.2087 23.9355Z" fill="#E51A4B"/>
<path d="M49.6462 24.1408H50.1103V26.8121H49.6462V26.439C49.4938 26.6407 49.2035 26.8906 48.7343 26.8906C48.0604 26.8906 47.4375 26.416 47.4375 25.4745C47.4375 24.5528 48.0522 24.0781 48.7343 24.0781C49.2477 24.0781 49.5265 24.3591 49.6462 24.5218V24.1408ZM47.913 25.4745C47.913 26.0483 48.2345 26.4786 48.7856 26.4786C49.3531 26.4786 49.6727 26.0084 49.6727 25.4816C49.6727 24.7914 49.1987 24.4908 48.7856 24.4908C48.3294 24.4908 47.913 24.824 47.913 25.4745Z" fill="#E51A4B"/>
<path d="M52.9407 24.1409V25.9051L54.7675 23.9355V26.8123H54.305V25.0295L52.4766 26.9993V24.1409H52.9407Z" fill="#E51A4B"/>
<path d="M59.2834 24.1406V26.812H58.8196V24.5659H57.5992V26.812H57.1367V24.1406H59.2834Z" fill="#E51A4B"/>
<path d="M59.9922 25.4844C59.9922 24.6765 60.5909 24.0781 61.4077 24.0781C62.2222 24.0781 62.821 24.6765 62.821 25.4844C62.821 26.2973 62.2143 26.8906 61.4077 26.8906C60.5957 26.8906 59.9922 26.2973 59.9922 25.4844ZM60.4696 25.4844C60.4696 26.1435 60.9318 26.4786 61.4077 26.4786C61.8877 26.4786 62.3435 26.1385 62.3435 25.4844C62.3435 24.8303 61.8947 24.4908 61.4077 24.4908C60.9203 24.4908 60.4696 24.8354 60.4696 25.4844Z" fill="#E51A4B"/>
<path d="M65.6139 24.8895C65.3695 24.5791 65.0171 24.4908 64.779 24.4908C64.284 24.4908 63.8349 24.8354 63.8349 25.4844C63.8349 26.1385 64.299 26.4786 64.7726 26.4786C65.0499 26.4786 65.3892 26.3568 65.6318 26.0597V26.6147C65.343 26.8251 65.0365 26.8906 64.7854 26.8906C63.9562 26.8906 63.3594 26.2973 63.3594 25.4942C63.3594 24.6765 63.9642 24.0781 64.7854 24.0781C65.2087 24.0781 65.4857 24.2424 65.6139 24.3342V24.8895Z" fill="#E51A4B"/>
<path d="M66.3398 24.1406H66.8055V25.164H67.2782C67.5192 25.164 67.8521 25.1855 68.0896 25.4269C68.1914 25.5304 68.2961 25.7174 68.2961 25.9905C68.2961 26.2794 68.1736 26.4784 68.0587 26.5882C67.8276 26.8066 67.537 26.812 67.2731 26.812H66.3398V24.1406ZM67.2352 26.4009C67.388 26.4009 67.537 26.3946 67.6452 26.33C67.7063 26.2911 67.8177 26.1959 67.8177 25.9905C67.8177 25.8722 67.7894 25.7357 67.6519 25.6535C67.537 25.5763 67.388 25.5763 67.2422 25.5763H66.8055V26.4009H67.2352ZM68.6164 24.1406H69.0805V26.812H68.6164V24.1406Z" fill="#E51A4B"/>
<path d="M71.967 26.812H71.5049V24.5659H70.5551V25.7687C70.5551 25.9949 70.5551 26.2911 70.3485 26.5404C70.2664 26.6439 70.0649 26.8249 69.7055 26.8249C69.6632 26.8249 69.6107 26.8183 69.5664 26.812V26.3892C69.596 26.3946 69.6367 26.4009 69.6676 26.4009C69.8417 26.4009 69.9519 26.3123 70.0025 26.2266C70.0874 26.0987 70.091 25.9313 70.091 25.7687V24.1406H71.967V26.812Z" fill="#E51A4B"/>
<path d="M73.303 24.1406V25.2364L74.3837 24.1406H74.9493L73.7939 25.3313L75.0923 26.812H74.4872L73.4476 25.6421L73.303 25.775V26.812H72.8438V24.1406H73.303Z" fill="#E51A4B"/>
<path d="M76.0169 24.1409V25.9051L77.842 23.9355V26.8123H77.3799V25.0295L75.5547 26.9993V24.1409H76.0169Z" fill="#E51A4B"/>
</g>
<defs>
<clipPath id="clip0_2480_153426">
<rect width="119" height="27" fill="white"/>
</clipPath>
</defs>
</svg>
