<svg width="89" height="636" viewBox="0 0 89 636" fill="none" xmlns="http://www.w3.org/2000/svg">
<path d="M0.984374 4.56479C0.984375 2.07543 2.22906 0.830744 4.71842 0.830744L85.1248 0.830748C87.6142 0.830748 88.8589 2.07543 88.8589 4.56479L88.8589 71.4042C88.8589 73.8935 87.6142 75.1382 85.1248 75.1382L71.4333 75.1382C68.944 75.1382 67.6993 73.8935 67.6993 71.4042L67.6993 22.8616L54.7546 22.8616L54.7546 52.3606C54.7546 54.8499 53.5099 56.0946 51.0206 56.0946L39.3206 56.0946C36.8312 56.0946 35.5865 54.8499 35.5865 52.3605L35.5865 22.8616L22.144 22.8616L22.144 71.4042C22.144 73.8935 20.8993 75.1382 18.4099 75.1382L4.71842 75.1382C2.22905 75.1382 0.984371 73.8935 0.984372 71.4042L0.984374 4.56479ZM0.984371 91.3521C0.984371 88.8628 2.22905 87.6181 4.71841 87.6181L85.1248 87.6181C87.6142 87.6181 88.8589 88.8628 88.8589 91.3521L88.8589 106.039C88.8589 108.529 87.6142 109.773 85.1248 109.773L22.1439 109.773L22.1439 155.204C22.1439 157.694 20.8993 158.938 18.4099 158.938L4.71841 158.938C2.22905 158.938 0.984368 157.694 0.984368 155.204L0.984371 91.3521ZM0.984367 172.062C0.984367 169.573 2.22905 168.328 4.71841 168.328L85.1248 168.328C87.6142 168.328 88.8589 169.573 88.8589 172.062L88.8589 238.901C88.8589 241.391 87.6142 242.635 85.1248 242.635L71.4333 242.635C68.944 242.635 67.6993 241.391 67.6993 238.901L67.6993 190.359L54.7546 190.359L54.7546 219.858C54.7546 222.347 53.5099 223.592 51.0205 223.592L39.3205 223.592C36.8312 223.592 35.5865 222.347 35.5865 219.858L35.5865 190.359L22.1439 190.359L22.1439 238.901C22.1439 241.391 20.8993 242.635 18.4099 242.635L4.71841 242.635C2.22905 242.635 0.984364 241.391 0.984364 238.901L0.984367 172.062ZM0.984363 258.849C0.984364 256.36 2.22904 255.115 4.71841 255.115L85.1248 255.115C87.6142 255.115 88.8589 256.36 88.8589 258.849L88.8589 276.648C88.8589 278.723 88.0291 280.216 86.3695 281.129L41.1876 308.014L86.3695 334.775C88.0291 335.688 88.8589 337.181 88.8589 339.256L88.8589 357.055C88.8589 359.544 87.6142 360.789 85.1248 360.789L4.7184 360.789C2.22904 360.789 0.984359 359.544 0.984359 357.055L0.98436 342.492C0.98436 340.002 2.22904 338.758 4.7184 338.758L53.8833 338.758L17.4142 316.727C15.7546 315.814 14.9248 314.321 14.9248 312.246L14.9248 303.533C14.9248 301.459 15.7546 299.965 17.4142 299.052L53.5099 277.146L4.71841 277.146C2.22904 277.146 0.984363 275.901 0.984363 273.412L0.984363 258.849ZM0.984358 380.157C0.984358 377.668 2.22904 376.423 4.7184 376.423L85.1248 376.423C87.6142 376.423 88.8589 377.668 88.8589 380.157L88.8588 446.996C88.8588 449.486 87.6142 450.73 85.1248 450.73L71.4333 450.73C68.9439 450.73 67.6993 449.486 67.6993 446.996L67.6993 398.454L54.7546 398.454L54.7546 427.953C54.7546 430.442 53.5099 431.687 51.0205 431.687L39.3205 431.687C36.8312 431.687 35.5865 430.442 35.5865 427.953L35.5865 398.454L22.1439 398.454L22.1439 446.996C22.1439 449.486 20.8993 450.73 18.4099 450.73L4.7184 450.73C2.22904 450.73 0.984355 449.486 0.984355 446.996L0.984358 380.157ZM0.984354 466.944C0.984354 464.455 2.22904 463.21 4.7184 463.21L85.1248 463.21C87.6142 463.21 88.8588 464.455 88.8588 466.944L88.8588 481.258C88.8588 483.084 88.112 484.619 86.6184 485.864L34.9641 526.316L85.1248 526.316C87.6142 526.316 88.8588 527.56 88.8588 530.05L88.8588 544.737C88.8588 547.226 87.6142 548.471 85.1248 548.471L4.71839 548.471C2.22903 548.471 0.984351 547.226 0.984351 544.737L0.984352 530.423C0.984352 528.598 1.73116 527.063 3.22478 525.818L54.6301 485.366L4.7184 485.366C2.22903 485.366 0.984354 484.121 0.984354 481.632L0.984354 466.944ZM0.984349 589.614C0.984349 587.124 2.22903 585.88 4.71839 585.88L67.5748 585.88L67.5748 562.106C67.5748 559.617 68.8195 558.372 71.3088 558.372L85.1248 558.372C87.6142 558.372 88.8588 559.617 88.8588 562.106L88.8588 631.933C88.8588 634.422 87.6142 635.667 85.1248 635.667L71.3088 635.667C68.8195 635.667 67.5748 634.422 67.5748 631.933L67.5748 608.159L4.71839 608.159C2.22903 608.159 0.984348 606.915 0.984348 604.425L0.984349 589.614Z" fill="#ECEEF1"/>
</svg>
