<svg width="26" height="26" viewBox="0 0 26 26" fill="none" xmlns="http://www.w3.org/2000/svg">
<path d="M25.5683 23.5411L20.9025 18.9095C24.5455 14.2453 24.1623 7.60257 19.9748 3.4175C17.7699 1.214 14.8282 0 11.6972 0C8.56467 0 5.6244 1.21406 3.41964 3.4175C1.21476 5.621 0 8.56083 0 11.6899C0 14.8205 1.21482 17.7589 3.41964 19.9623C5.62453 22.1658 8.56621 23.3798 11.6972 23.3798C14.2867 23.3798 16.8438 22.5176 18.8887 20.888L23.5233 25.5845C23.8104 25.8715 24.1625 26 24.5458 26C24.9291 26 25.2812 25.8403 25.5683 25.5845C26.1439 25.0417 26.1439 24.1163 25.5683 23.5411ZM20.5192 11.6899C20.5192 14.0531 19.5928 16.2579 17.9298 17.9186C16.268 19.5794 14.0307 20.5065 11.6971 20.5065C9.36357 20.5065 7.12621 19.5806 5.46449 17.9186C3.80271 16.2579 2.87504 14.022 2.87504 11.6899C2.87504 9.32668 3.80143 7.12183 5.46449 5.46116C7.12627 3.80042 9.36357 2.87333 11.6971 2.87333C14.0618 2.87333 16.2681 3.79914 17.9298 5.46116C19.5916 7.12314 20.5192 9.32681 20.5192 11.6899Z" fill="#9A9A9A"/>
</svg>
