<svg width="40" height="40" viewBox="0 0 40 40" fill="none" xmlns="http://www.w3.org/2000/svg">
<path d="M31 17.7028H22.7128L26.0619 14.2559C22.725 10.9557 17.3224 10.8335 13.9855 14.1337C10.6486 17.4461 10.6486 22.7876 13.9855 26.1123C17.3224 29.4125 22.725 29.4125 26.0619 26.1123C27.7242 24.4622 28.5554 22.5431 28.5554 20.123H31C31 22.5431 29.9244 25.6845 27.7731 27.8113C23.4828 32.0649 16.5157 32.0649 12.2254 27.8113C7.94733 23.5699 7.91066 16.6761 12.201 12.4347C16.4912 8.19328 23.3728 8.19328 27.6631 12.4347L31 9V17.7028ZM20.6104 15.1115V20.3063L24.8885 22.8487L24.0084 24.3277L18.777 21.223V15.1115H20.6104Z" fill="#9A9A9A"/>
</svg>
